HIERARCHY
ROOT Hips
{
	OFFSET 0.000000 0.000000 0.000000
	CHANNELS 6 Xposition Yposition Zposition Zrotation Yrotation Xrotation 
	JOINT LHipJoint
	{
		OFFSET 0.000000 0.000000 0.000000
		CHANNELS 3 Zrotation Yrotation Xrotation
		JOINT LeftUpLeg
		{
			OFFSET 1.363060 -1.794630 0.839290
			CHANNELS 3 Zrotation Yrotation Xrotation
			JOINT LeftLeg
			{
				OFFSET 2.448110 -6.726130 0.000000
				CHANNELS 3 Zrotation Yrotation Xrotation
				JOINT LeftFoot
				{
					OFFSET 2.562200 -7.039590 0.000000
					CHANNELS 3 Zrotation Yrotation Xrotation
					JOINT LeftToeBase
					{
						OFFSET 0.157640 -0.433110 2.322550
						CHANNELS 3 Zrotation Yrotation Xrotation
						End Site
						{
							OFFSET 0.000000 0.000000 0.000000
						}
					}
				}
			}
		}
	}
	JOINT RHipJoint
	{
		OFFSET 0.000000 0.000000 0.000000
		CHANNELS 3 Zrotation Yrotation Xrotation
		JOINT RightUpLeg
		{
			OFFSET -1.305520 -1.794630 0.839290
			CHANNELS 3 Zrotation Yrotation Xrotation
			JOINT RightLeg
			{
				OFFSET -2.542530 -6.985550 0.000000
				CHANNELS 3 Zrotation Yrotation Xrotation
				JOINT RightFoot
				{
					OFFSET -2.568260 -7.056230 0.000000
					CHANNELS 3 Zrotation Yrotation Xrotation
					JOINT RightToeBase
					{
						OFFSET -0.164730 -0.452590 2.363150
						CHANNELS 3 Zrotation Yrotation Xrotation
						End Site
						{
							OFFSET 0.000000 0.000000 0.000000
						}
					}
				}
			}
		}
	}
	JOINT LowerBack
	{
		OFFSET 0.000000 0.000000 0.000000
		CHANNELS 3 Zrotation Yrotation Xrotation
		JOINT Spine
		{
			OFFSET 0.028270 2.035590 -0.193380
			CHANNELS 3 Zrotation Yrotation Xrotation
			JOINT Spine1
			{
				OFFSET 0.056720 2.048850 -0.042750
				CHANNELS 3 Zrotation Yrotation Xrotation
				JOINT Neck
				{
					OFFSET 0.000000 0.000000 0.000000
					CHANNELS 3 Zrotation Yrotation Xrotation
					JOINT Neck1
					{
						OFFSET -0.054170 1.746240 0.172020
						CHANNELS 3 Zrotation Yrotation Xrotation
						JOINT Head
						{
							OFFSET 0.104070 1.761360 -0.123970
							CHANNELS 3 Zrotation Yrotation Xrotation
							End Site
							{
								OFFSET 0.000000 0.000000 0.000000
							}
						}
					}
				}
				JOINT LeftShoulder
				{
					OFFSET 0.000000 0.000000 0.000000
					CHANNELS 3 Zrotation Yrotation Xrotation
					JOINT LeftArm
					{
						OFFSET 3.362410 1.200890 -0.311210
						CHANNELS 3 Zrotation Yrotation Xrotation
						JOINT LeftForeArm
						{
							OFFSET 4.983000 -0.000000 -0.000000
							CHANNELS 3 Zrotation Yrotation Xrotation
							JOINT LeftHand
							{
								OFFSET 3.483560 -0.000000 -0.000000
								CHANNELS 3 Zrotation Yrotation Xrotation
								JOINT LeftFingerBase
								{
									OFFSET 0.000000 0.000000 0.000000
									CHANNELS 3 Zrotation Yrotation Xrotation
									JOINT LeftHandIndex1
									{
										OFFSET 0.715260 -0.000000 -0.000000
										CHANNELS 3 Zrotation Yrotation Xrotation
										End Site
										{
											OFFSET 0.000000 0.000000 0.000000
										}
									}
								}
								JOINT LThumb
								{
									OFFSET 0.000000 0.000000 0.000000
									CHANNELS 3 Zrotation Yrotation Xrotation
									End Site
									{
										OFFSET 0.000000 0.000000 0.000000
									}
								}
							}
						}
					}
				}
				JOINT RightShoulder
				{
					OFFSET 0.000000 0.000000 0.000000
					CHANNELS 3 Zrotation Yrotation Xrotation
					JOINT RightArm
					{
						OFFSET -3.136600 1.374050 -0.404650
						CHANNELS 3 Zrotation Yrotation Xrotation
						JOINT RightForeArm
						{
							OFFSET -5.241900 -0.000000 -0.000000
							CHANNELS 3 Zrotation Yrotation Xrotation
							JOINT RightHand
							{
								OFFSET -3.444170 -0.000000 -0.000000
								CHANNELS 3 Zrotation Yrotation Xrotation
								JOINT RightFingerBase
								{
									OFFSET 0.000000 0.000000 0.000000
									CHANNELS 3 Zrotation Yrotation Xrotation
									JOINT RightHandIndex1
									{
										OFFSET -0.622530 -0.000000 -0.000000
										CHANNELS 3 Zrotation Yrotation Xrotation
										End Site
										{
											OFFSET 0.000000 0.000000 0.000000
										}
									}
								}
								JOINT RThumb
								{
									OFFSET 0.000000 0.000000 0.000000
									CHANNELS 3 Zrotation Yrotation Xrotation
									End Site
									{
										OFFSET 0.000000 0.000000 0.000000
									}
								}
							}
						}
					}
				}
			}
		}
	}
}
MOTION
Frames: 7
Frame Time: 0.008333
12.678661 12.580053 2.343665 126.881718 -88.368464 -40.580795 -9.176060 -0.793144 3.987482 -4.929936 -16.785743 -133.849386 0.154041 10.021056 83.183286 4.494721 6.272780 -34.886042 -3.821299 0.000000 -41.246700 9.924195 0.979666 5.222118 3.210606 10.388525 -136.173872 -0.177896 -11.659542 84.212609 -2.239558 1.716944 -30.740523 0.990001 -0.000000 -58.434100 1.695814 -2.472277 -3.473382 -0.300490 -2.689354 -3.194285 -3.804995 -2.916297 0.618685 9.905329 -13.035658 -15.855477 -1.021441 0.129064 -3.818705 0.000000 0.000000 0.000000 -3.489262 17.567845 5.643576 -67.734552 28.597272 -21.811044 0.645482 -8.231306 -0.009459 6.838191 -6.781913 -0.417172 -0.055225 0.133992 0.000000 0.000000 0.000000 0.000000 0.000000 0.000000 0.000000 14.036874 -11.100309 5.189121 60.612922 -29.868473 -39.594697 -0.437448 3.653318 -0.005142 -0.488883 20.068793 -0.086626 -0.007807 -0.301297 0.000000 0.000000 0.000000 0.000000 0.000000 0.000000 0.000000 
12.646490 12.562597 2.344382 128.083658 -88.320276 -41.643921 -9.198132 -0.791019 4.001263 -4.967821 -16.825760 -133.945161 0.180429 10.050368 83.375607 4.519247 6.316165 -35.023886 -3.862901 -0.000000 -41.338800 9.927544 0.969872 5.248951 3.178687 10.374585 -136.280694 -0.197170 -11.674598 84.367522 -2.257611 1.731414 -30.910810 0.999800 -0.000000 -58.511199 1.681331 -2.481849 -3.529934 -0.309611 -2.701997 -3.214992 -3.813882 -2.929915 0.605795 9.933531 -13.044354 -15.871526 -1.028455 0.128772 -3.826076 0.000000 0.000000 0.000000 -3.563071 17.565586 5.640658 -67.830462 28.472805 -21.558261 0.644239 -8.508344 -0.009665 6.787287 -6.712915 -0.409871 -0.053924 0.134874 0.000000 0.000000 0.000000 0.000000 0.000000 0.000000 0.000000 14.104462 -11.105618 5.193520 60.657718 -29.722719 -39.472820 -0.445656 3.780580 -0.005344 -0.549552 20.023168 -0.097327 -0.007509 -0.302020 0.000000 0.000000 0.000000 0.000000 0.000000 0.000000 0.000000 
12.614342 12.546229 2.345321 129.336828 -88.280702 -42.766491 -9.219233 -0.794900 4.009822 -5.000056 -16.849250 -134.023630 0.206775 10.076508 83.563725 4.544451 6.361122 -35.172999 -3.907000 0.000000 -41.408200 9.926270 0.961114 5.270206 3.149802 10.369074 -136.357608 -0.212414 -11.684241 84.505814 -2.281903 1.734436 -31.107659 1.014300 -0.000000 -58.560400 1.671898 -2.491840 -3.571976 -0.317107 -2.714569 -3.230811 -3.822749 -2.943299 0.592014 9.958189 -13.044531 -15.884747 -1.035444 0.128447 -3.833092 0.000000 0.000000 0.000000 -3.639699 17.569245 5.637918 -67.944515 28.335588 -21.326392 0.642877 -8.776465 -0.009839 6.693092 -6.653293 -0.400671 -0.052012 0.135874 0.000000 0.000000 0.000000 0.000000 0.000000 0.000000 0.000000 14.166725 -11.101210 5.197848 60.718847 -29.560551 -39.389862 -0.454842 3.897243 -0.005555 -0.585991 19.987193 -0.103729 -0.007584 -0.302794 0.000000 0.000000 0.000000 0.000000 0.000000 0.000000 0.000000 
12.580856 12.528115 2.346022 130.367400 -88.241830 -43.633473 -9.243722 -0.789051 4.035325 -5.011093 -16.889217 -134.146579 0.232207 10.104864 83.748382 4.571600 6.403276 -35.322871 -3.950700 0.000000 -41.475900 9.932540 0.949153 5.310076 3.098026 10.369783 -136.474646 -0.225930 -11.696009 84.643273 -2.312394 1.733590 -31.335581 1.032700 0.000000 -58.510800 1.661776 -2.496668 -3.656074 -0.325244 -2.723875 -3.259394 -3.834291 -2.953941 0.584717 9.990364 -13.077180 -15.898695 -1.041164 0.128208 -3.838715 0.000000 0.000000 0.000000 -3.715164 17.572548 5.632970 -68.043835 28.210285 -21.081364 0.639949 -9.039949 -0.009983 6.625292 -6.548072 -0.390370 -0.050614 0.136276 0.000000 0.000000 0.000000 0.000000 0.000000 0.000000 0.000000 14.240287 -11.133715 5.199546 60.768655 -29.397752 -39.257303 -0.460297 4.034077 -0.005696 -0.629434 19.936967 -0.111229 -0.007350 -0.303620 0.000000 0.000000 0.000000 0.000000 0.000000 0.000000 0.000000 
12.547361 12.511183 2.346867 131.346071 -88.209683 -44.457466 -9.265970 -0.788518 4.055224 -5.016990 -16.915759 -134.249760 0.256879 10.129649 83.928732 4.597810 6.439362 -35.484787 -3.994700 0.000000 -41.531200 9.935632 0.940391 5.344221 3.046425 10.371145 -136.564114 -0.237056 -11.703093 84.768517 -2.347193 1.723985 -31.582067 1.054600 -0.000000 -58.451900 1.658113 -2.502960 -3.725143 -0.331223 -2.734154 -3.282918 -3.845910 -2.965385 0.576431 10.019958 -13.105488 -15.910341 -1.046249 0.128016 -3.844171 0.000000 0.000000 0.000000 -3.796126 17.579947 5.628139 -68.156897 28.066357 -20.854869 0.637102 -9.293967 -0.010097 6.516293 -6.452315 -0.378369 -0.048615 0.136809 0.000000 0.000000 0.000000 0.000000 0.000000 0.000000 0.000000 14.307751 -11.161398 5.201079 60.834398 -29.209659 -39.158143 -0.466502 4.162524 -0.005843 -0.644991 19.901152 -0.113829 -0.007533 -0.304535 0.000000 0.000000 0.000000 0.000000 0.000000 0.000000 0.000000 
12.513403 12.494609 2.347573 132.128183 -88.180923 -45.083399 -9.286127 -0.787405 4.075068 -5.017842 -16.941206 -134.347869 0.279946 10.152407 84.104113 4.622683 6.465360 -35.653810 -4.036999 -0.000000 -41.586600 9.940183 0.935009 5.379187 2.988006 10.368412 -136.645528 -0.247359 -11.708142 84.888779 -2.384732 1.710316 -31.842656 1.078700 -0.000000 -58.374400 1.657210 -2.509166 -3.794288 -0.336456 -2.744472 -3.306093 -3.858503 -2.976883 0.569135 10.052779 -13.146627 -15.922094 -1.049984 0.127974 -3.849652 0.000000 0.000000 0.000000 -3.879626 17.586531 5.622880 -68.272310 27.909760 -20.633941 0.634618 -9.542354 -0.010195 6.401099 -6.344782 -0.365568 -0.046513 0.137218 0.000000 0.000000 0.000000 0.000000 0.000000 0.000000 0.000000 14.376929 -11.203109 5.202038 60.906557 -28.996515 -39.049856 -0.472151 4.292306 -0.005979 -0.648097 19.873051 -0.114130 -0.007861 -0.305534 0.000000 0.000000 0.000000 0.000000 0.000000 0.000000 0.000000 
12.478928 12.478432 2.348188 132.646613 -88.155605 -45.443918 -9.303856 -0.784848 4.095557 -5.013889 -16.968555 -134.442529 0.301001 10.173228 84.272990 4.645685 6.479517 -35.826850 -4.076500 -0.000000 -41.654100 9.947382 0.932865 5.415640 2.922837 10.358984 -136.723161 -0.257413 -11.712057 85.004492 -2.423356 1.694239 -32.107701 1.103800 -0.000000 -58.297800 1.661998 -2.516080 -3.865270 -0.339924 -2.755755 -3.329717 -3.872283 -2.989396 0.562352 10.087795 -13.198595 -15.934299 -1.052618 0.128060 -3.855227 0.000000 0.000000 0.000000 -3.969375 17.591050 5.617260 -68.387286 27.741025 -20.415007 0.632386 -9.788785 -0.010280 6.281298 -6.229320 -0.352267 -0.044320 0.137556 0.000000 0.000000 0.000000 0.000000 0.000000 0.000000 0.000000 14.446369 -11.256955 5.202480 60.986774 -28.759995 -38.929362 -0.476903 4.429312 -0.006099 -0.639629 19.850361 -0.112431 -0.008312 -0.306623 0.000000 0.000000 0.000000 0.000000 0.000000 0.000000 0.000000 
